<svg width="40" height="40" viewBox="0 0 40 40" fill="none" xmlns="http://www.w3.org/2000/svg">
<path d="M33.5098 0C31.2219 0 29.3672 1.85469 29.3672 4.14258V16.5031H36.4805C37.1277 16.5031 37.6523 15.9784 37.6523 15.3313V4.14258C37.6523 1.85469 35.7977 0 33.5098 0Z" fill="#00855f"/>
<path d="M14.1688 29.4531C14.1688 22.3741 19.9275 16.5435 27.1014 16.563V4.64734C27.1014 2.86477 27.7724 1.23617 28.8746 0H8.20547C4.97578 0 2.34766 2.62813 2.34766 5.85781V38.807C2.34766 39.8613 3.63727 40.3791 4.36641 39.6172L5.86563 38.0516L7.44922 39.6359C7.90625 40.093 8.64844 40.093 9.10625 39.6359L10.607 38.1359L12.1227 39.6391C12.5797 40.0922 13.3164 40.0922 13.7734 39.6391L15.3133 38.1125L16.8539 39.6391C17.3102 40.0922 18.0461 40.0922 18.5031 39.6398L18.8016 39.3445C15.8959 36.9152 14.1688 33.3231 14.1688 29.4531ZM11.8278 9.45312H14.1406V7.14031C14.1406 6.49313 14.6653 5.96844 15.3125 5.96844C15.9597 5.96844 16.4844 6.49313 16.4844 7.14031V9.45312H18.7972C19.4444 9.45312 19.9691 9.97781 19.9691 10.625C19.9691 11.2722 19.4444 11.7969 18.7972 11.7969H16.4844V14.1097C16.4844 14.7569 15.9597 15.2816 15.3125 15.2816C14.6653 15.2816 14.1406 14.7569 14.1406 14.1097V11.7969H11.8278C11.1806 11.7969 10.6559 11.2722 10.6559 10.625C10.6559 9.97781 11.1806 9.45312 11.8278 9.45312ZM8.28117 17.6602H16.1719C16.8191 17.6602 17.3438 18.1848 17.3438 18.832C17.3438 19.4792 16.8191 20.0039 16.1719 20.0039H8.28117C7.63398 20.0039 7.1093 19.4792 7.1093 18.832C7.1093 18.1848 7.63398 17.6602 8.28117 17.6602ZM12.1913 29.3711H8.27336C7.62617 29.3711 7.10148 28.8464 7.10148 28.1992C7.10148 27.552 7.62617 27.0273 8.27336 27.0273H12.1913C12.8385 27.0273 13.3632 27.552 13.3632 28.1992C13.3632 28.8464 12.8385 29.3711 12.1913 29.3711ZM12.9727 24.6914H8.27719C7.63 24.6914 7.10531 24.1667 7.10531 23.5195C7.10531 22.8723 7.63 22.3477 8.27719 22.3477H12.9727C13.6198 22.3477 14.1445 22.8723 14.1445 23.5195C14.1445 24.1667 13.6198 24.6914 12.9727 24.6914Z" fill="#00855f"/>
<path d="M27.0596 18.9062C21.244 18.9062 16.5127 23.6376 16.5127 29.4531C16.5127 35.2687 21.244 40 27.0596 40C32.8751 40 37.6064 35.2687 37.6064 29.4531C37.6064 23.6376 32.8751 18.9062 27.0596 18.9062ZM28.2351 33.9663V34.0777C28.2351 34.7249 27.7104 35.2496 27.0632 35.2496C26.4161 35.2496 25.8914 34.7249 25.8914 34.0777V34.0579C25.3664 33.9328 24.8794 33.726 24.4932 33.4734C23.9516 33.119 23.7998 32.3927 24.1541 31.8511C24.5085 31.3094 25.2347 31.1577 25.7764 31.512C26.256 31.8258 27.0466 31.9449 27.4352 31.7621C27.687 31.6436 27.8818 31.3907 27.9089 31.1471C27.967 30.6282 27.154 30.3387 26.6686 30.147C25.9341 29.857 25.0199 29.4959 24.4892 28.5377C23.7327 27.1722 24.3953 25.3716 25.8914 24.7559V24.6969C25.8914 24.0497 26.4161 23.525 27.0632 23.525C27.704 23.525 28.2239 24.0395 28.2342 24.6779C28.656 24.8097 29.0446 25.0206 29.3557 25.3076C29.8314 25.7464 29.8614 26.4877 29.4225 26.9635C28.9837 27.4394 28.2423 27.4691 27.7666 27.0304C27.5739 26.8525 26.9797 26.7808 26.7215 26.9541C26.5479 27.0709 26.4799 27.2945 26.5393 27.4019C26.7868 27.8487 28.0829 28.0018 29.0638 28.7662C31.0675 30.3276 30.3704 33.1473 28.2351 33.9663Z" fill="#00855f"/>
</svg>
