<svg width="40" height="40" viewBox="0 0 40 40" fill="none" xmlns="http://www.w3.org/2000/svg">
<g clip-path="url(#clip0_435_388)">
<path d="M28.9325 36.9219C28.7378 37.2187 28.4185 37.3984 28.068 37.3984H11.8067C11.4562 37.3984 11.1291 37.2187 10.9422 36.9219C10.7553 36.6328 10.7319 36.2734 10.8643 35.9609C11.2615 35.0703 12.1494 34.5 13.1229 34.5H15.0699V32.7812H24.8127V34.5H26.7597C27.7332 34.5 28.6132 35.0781 29.0182 35.9609C29.1506 36.2734 29.1194 36.6406 28.9325 36.9219Z" fill="#00855F"/>
<path d="M12.9826 12.2969C12.4453 14.3047 10.6073 15.7891 8.44224 15.7891C5.84883 15.7813 3.73828 13.6719 3.73828 11.0703C3.73828 8.89062 5.218 7.05469 7.21952 6.51562C7.16501 6.72656 7.19616 6.58594 7.18837 11.0703C7.18837 11.7578 7.74911 12.3203 8.43445 12.3203C12.8814 12.3125 12.7646 12.3359 12.9826 12.2969Z" fill="#00855F"/>
<path d="M13.1384 11.0703C13.1384 11.2969 12.9514 11.4844 12.7256 11.4844H8.44218C8.21633 11.4844 8.02942 11.2969 8.02942 11.0703V6.77344C8.02942 6.53906 8.21633 6.35938 8.44218 6.35938C11.0356 6.35938 13.1384 8.46875 13.1384 11.0703Z" fill="#00855F"/>
<path d="M12.7256 18.3125H4.15105C3.92519 18.3125 3.73828 18.125 3.73828 17.8984C3.73828 17.6719 3.92519 17.4844 4.15105 17.4844H12.7256C12.9515 17.4844 13.1384 17.6719 13.1384 17.8984C13.1384 18.125 12.9515 18.3125 12.7256 18.3125Z" fill="#00855F"/>
<path d="M12.7256 20.7656H4.15105C3.92519 20.7656 3.73828 20.5781 3.73828 20.3516C3.73828 20.125 3.92519 19.9375 4.15105 19.9375H12.7256C12.9515 19.9375 13.1384 20.125 13.1384 20.3516C13.1384 20.5859 12.9515 20.7656 12.7256 20.7656Z" fill="#00855F"/>
<path d="M12.7256 23.2266H4.15105C3.92519 23.2266 3.73828 23.0391 3.73828 22.8125C3.73828 22.5859 3.92519 22.3984 4.15105 22.3984H12.7256C12.9515 22.3984 13.1384 22.5859 13.1384 22.8125C13.1384 23.0391 12.9515 23.2266 12.7256 23.2266Z" fill="#00855F"/>
<path d="M20.7473 16.2891V22.3906C20.7473 22.8516 20.3734 23.2266 19.9139 23.2266H18.185C17.7255 23.2266 17.3517 22.8516 17.3517 22.3906V16.2891C17.3517 15.8281 17.7177 15.4531 18.185 15.4531H19.9139C20.3734 15.4531 20.7473 15.8281 20.7473 16.2891Z" fill="#00855F"/>
<path d="M25.8796 11.9922V22.3906C25.8796 22.8516 25.5058 23.2266 25.0463 23.2266H23.3173C22.8578 23.2266 22.484 22.8516 22.484 22.3906V11.9922C22.484 11.5312 22.85 11.1562 23.3173 11.1562H25.0463C25.5058 11.1562 25.8796 11.5312 25.8796 11.9922Z" fill="#00855F"/>
<path d="M31.0041 16.2891V22.3906C31.0041 22.8516 30.6302 23.2266 30.1708 23.2266H28.434C27.9745 23.2266 27.6007 22.8516 27.6007 22.3906V16.2891C27.6007 15.8281 27.9745 15.4531 28.434 15.4531H30.1708C30.6302 15.4531 31.0041 15.8281 31.0041 16.2891Z" fill="#00855F"/>
<path d="M36.1364 13.7422V22.3906C36.1364 22.8516 35.7626 23.2266 35.3031 23.2266H33.5664C33.1069 23.2266 32.733 22.8516 32.733 22.3906V13.7422C32.733 13.2812 33.1069 12.9062 33.5664 12.9062H35.3031C35.7626 12.9062 36.1364 13.2812 36.1364 13.7422Z" fill="#00855F"/>
<path d="M29.3063 13.3046C29.1895 13.3046 29.0727 13.2499 28.987 13.1561L24.1429 7.37487L19.3377 12.0311C19.1741 12.1874 18.9093 12.1874 18.7536 12.0233C18.5978 11.8592 18.5978 11.5936 18.7613 11.4374L23.8936 6.46862C23.9793 6.39049 24.0883 6.34362 24.2052 6.35143C24.322 6.35924 24.431 6.41393 24.5011 6.49987L29.3842 12.328L34.205 8.91393C34.3919 8.78112 34.6489 8.82799 34.7813 9.01549C34.9137 9.20299 34.867 9.46081 34.68 9.59362L29.5477 13.2342C29.4776 13.2811 29.392 13.3046 29.3063 13.3046Z" fill="#00855F"/>
<path d="M19.9373 28.0625C19.6258 28.0625 19.3688 28.3203 19.3688 28.6328C19.3688 28.9453 19.6258 29.2031 19.9373 29.2031C20.2488 29.2031 20.5058 28.9453 20.5058 28.6328C20.5058 28.3203 20.2488 28.0625 19.9373 28.0625Z" fill="#00855F"/>
<path d="M37.7952 2.60156H2.0794C0.926773 2.60156 0 3.53125 0 4.67969C0 5.34375 0 31.4609 0 29.8672C0 31.0156 0.926773 31.9531 2.0794 31.9531H37.803C38.9478 31.9531 39.8824 31.0156 39.8824 29.8672C39.8824 26.6875 39.8824 7.84375 39.8824 4.67969C39.8746 3.53125 38.94 2.60156 37.7952 2.60156ZM19.9373 30.0391C19.1663 30.0391 18.5355 29.4063 18.5355 28.6328C18.5355 27.8594 19.1663 27.2266 19.9373 27.2266C20.7083 27.2266 21.3391 27.8594 21.3391 28.6328C21.3391 29.4063 20.7083 30.0391 19.9373 30.0391ZM38.2158 25.3047H1.65885V4.67969C1.65885 4.45313 1.84576 4.26562 2.07161 4.26562H37.7952C38.0211 4.26562 38.208 4.45313 38.208 4.67969V25.3047H38.2158Z" fill="#00855F"/>
</g>
<defs>
<clipPath id="clip0_435_388">
<rect width="39.8746" height="40" fill="white"/>
</clipPath>
</defs>
</svg>
