<svg width="40" height="40" viewBox="0 0 40 40" fill="none" xmlns="http://www.w3.org/2000/svg">
<g clip-path="url(#clip0_440_517)">
<path d="M36.8904 3.0835C32.7768 -1.02783 26.0856 -1.02783 21.972 3.0835L13.2747 11.7808L23.1492 21.6554C25.1815 19.9629 27.7582 18.9033 30.6033 18.9033C32.2351 18.9033 33.788 19.2422 35.201 19.8476L36.8904 18.0019C41.0028 13.8894 41.0028 7.19717 36.8904 3.0835Z" fill="#00855f"/>
<path d="M21.5054 23.3267L11.6172 13.4385L3.10482 21.9592C-1.0076 26.0716 -1.0076 32.7639 3.10482 36.8775C7.21834 40.9886 13.9876 41.0671 18.1013 36.9556L19.8269 35.2217C19.2216 33.8087 18.8826 32.2558 18.8826 30.6239C18.8827 27.8519 19.8905 25.3356 21.5054 23.3267Z" fill="#00855f"/>
<path d="M21.2268 30.6234C21.2268 35.4003 24.8122 39.2988 29.4311 39.8816V21.3652C24.8122 21.948 21.2268 25.8463 21.2268 30.6234Z" fill="#00855f"/>
<path d="M31.7751 21.3652V39.8816C36.3941 39.2988 39.9794 35.4003 39.9794 30.6234C39.9794 25.8464 36.3941 21.948 31.7751 21.3652Z" fill="#00855f"/>
</g>
<defs>
<clipPath id="clip0_440_517">
<rect width="40" height="40" fill="white"/>
</clipPath>
</defs>
</svg>
