<svg width="40" height="40" viewBox="0 0 40 40" fill="none" xmlns="http://www.w3.org/2000/svg">
<path fill-rule="evenodd" clip-rule="evenodd" d="M20.5462 1.4425C18.647 -0.480834 15.568 -0.480834 13.6688 1.4425C11.7697 3.36584 11.7697 6.48418 13.6688 8.40752C15.568 10.3309 18.647 10.3309 20.5462 8.40752C22.4453 6.48418 22.4453 3.36584 20.5462 1.4425ZM20.009 6.19435H18.3608V7.86352H15.8541V6.19435H14.2058V3.65567H15.8541V1.9865H18.3608V3.65576H20.009V6.19435ZM29.2149 28.0498L24.4298 30.1266V34.2396C24.4298 37.0761 26.4744 39.5162 29.2149 40C31.9553 39.5162 34 37.0761 34 34.2396V30.1267L29.2149 28.0498ZM32.1451 32.664L29.3042 36.2208C29.0595 36.5309 28.6026 36.5587 28.3241 36.2767L26.3311 34.2582C26.074 33.9979 26.074 33.5758 26.3311 33.3156C26.5882 33.0552 27.0049 33.0552 27.2619 33.3156L28.7377 34.8102L31.1218 31.8255C31.3504 31.5393 31.7648 31.495 32.0475 31.7265C32.33 31.958 32.3737 32.3777 32.1451 32.664ZM25.2916 4.98059V8.57794C25.2916 8.75435 25.4337 8.89835 25.608 8.89835H29.16C29.1293 8.83027 29.0858 8.76769 29.0295 8.71069L25.4769 5.11276C25.4206 5.05576 25.3588 5.01168 25.2916 4.98059ZM25.608 10.2316C24.7071 10.2316 23.9751 9.49027 23.9751 8.57794V4.92501H23.2868C23.2868 6.52676 22.6836 8.12852 21.4771 9.35035C20.6011 10.2375 19.5272 10.8024 18.3994 11.0454H25.3153C25.6788 11.0454 25.9736 11.3439 25.9736 11.712C25.9736 12.0802 25.6788 12.3787 25.3153 12.3787H17.5315C17.168 12.3787 16.8732 12.0802 16.8732 11.712C16.8732 11.4964 16.9744 11.3048 17.1311 11.1829C15.5417 11.1889 13.9503 10.5783 12.7379 9.35035C11.5314 8.12852 10.9282 6.52676 10.9282 4.92501H5.63277C5.28429 4.92501 5 5.21293 5 5.56585V20.8174V36.0689C5 36.4218 5.28421 36.7097 5.63277 36.7097H23.5499C23.2671 35.9352 23.1133 35.102 23.1133 34.2397V31.6035H17.5315C17.168 31.6035 16.8732 31.305 16.8732 30.9368C16.8732 30.5686 17.168 30.2701 17.5315 30.2701H23.1133V29.2476L25.4443 28.2358C25.4026 28.2442 25.3594 28.2486 25.3152 28.2486H17.5314C17.1679 28.2486 16.8732 27.9501 16.8732 27.582C16.8732 27.2138 17.1679 26.9153 17.5314 26.9153H25.3152C25.6787 26.9153 25.9735 27.2138 25.9735 27.582C25.9735 27.8076 25.8627 28.0071 25.6933 28.1277L29.2148 26.5993V10.2316H25.608ZM13.5368 30.6739C13.5368 31.1873 13.1219 31.6075 12.6149 31.6075H9.82138C9.31442 31.6075 8.89954 31.1874 8.89954 30.6739V27.8448C8.89954 27.3314 9.31434 26.9112 9.82138 26.9112H12.6149C13.1219 26.9112 13.5368 27.3313 13.5368 27.8448V30.6739ZM13.5368 22.739C13.5368 23.2524 13.1219 23.6726 12.6149 23.6726H9.82138C9.31442 23.6726 8.89954 23.2524 8.89954 22.739V19.9099C8.89954 19.3965 9.31434 18.9763 9.82138 18.9763H12.6149C13.1219 18.9763 13.5368 19.3964 13.5368 19.9099V22.739ZM13.5368 14.8039C13.5368 15.3174 13.1219 15.7375 12.6149 15.7375H9.82138C9.31442 15.7375 8.89954 15.3174 8.89954 14.8039V11.9749C8.89954 11.4614 9.31434 11.0414 9.82138 11.0414H12.6149C13.1219 11.0414 13.5368 11.4614 13.5368 11.9749V14.8039ZM25.3153 23.6685H17.5315C17.168 23.6685 16.8732 23.37 16.8732 23.0018C16.8732 22.6336 17.168 22.3351 17.5315 22.3351H25.3153C25.6788 22.3351 25.9736 22.6336 25.9736 23.0018C25.9735 23.37 25.6788 23.6685 25.3153 23.6685ZM25.3153 20.3136H17.5315C17.168 20.3136 16.8732 20.0151 16.8732 19.647C16.8732 19.2788 17.168 18.9803 17.5315 18.9803H25.3153C25.6788 18.9803 25.9736 19.2788 25.9736 19.647C25.9735 20.0151 25.6788 20.3136 25.3153 20.3136ZM25.3153 15.7335H17.5315C17.168 15.7335 16.8732 15.4349 16.8732 15.0668C16.8732 14.6986 17.168 14.4001 17.5315 14.4001H25.3153C25.6788 14.4001 25.9736 14.6986 25.9736 15.0668C25.9735 15.4349 25.6788 15.7335 25.3153 15.7335Z" fill="#00855f"/>
</svg>
