<svg width="50" height="50" viewBox="0 0 50 50" fill="none" xmlns="http://www.w3.org/2000/svg">
<path d="M20.6181 0.898131C20.6181 0.780872 20.5933 0.66475 20.5449 0.556404C20.4965 0.448058 20.4256 0.349613 20.3361 0.266699C20.2467 0.183784 20.1405 0.118026 20.0236 0.0731846C19.9067 0.028343 19.7814 0.00529719 19.6549 0.00536525H5.63585C4.21354 -0.0557309 2.82287 0.406938 1.7671 1.29247C0.711329 2.17801 0.0761215 3.41457 0 4.73249V41.8015C0.00392491 42.0358 0.107128 42.2594 0.28733 42.4238C0.467532 42.5883 0.710278 42.6805 0.963164 42.6805C1.21605 42.6805 1.45879 42.5883 1.63898 42.4238C1.81917 42.2593 1.92236 42.0358 1.92627 41.8014V4.73249C2.00379 3.88879 2.43638 3.10726 3.13053 2.55682C3.82468 2.00637 4.72463 1.73125 5.63585 1.7909H19.6549C19.7814 1.79097 19.9067 1.76792 20.0236 1.72308C20.1405 1.67824 20.2467 1.61248 20.3361 1.52956C20.4256 1.44665 20.4965 1.3482 20.5449 1.23986C20.5933 1.13151 20.6181 1.01539 20.6181 0.898131Z" fill="#00855F"/>
<path d="M31.6673 36.4833V30.0643C31.6721 29.6463 31.7774 29.2346 31.9755 28.859C32.1498 28.5381 32.3924 28.2532 32.6887 28.0215C32.985 27.7898 33.3288 27.6161 33.6995 27.511C35.9881 26.7818 38.1298 25.7047 40.0369 24.3238C40.6364 24.047 41.2937 23.8946 41.9632 23.8774V14.1284C40.7304 14.1462 36.8971 14.173 35.5969 14.182C35.2559 14.184 34.9179 14.1236 34.6022 14.0044C34.2864 13.8852 33.9991 13.7095 33.7567 13.4873C33.5142 13.265 33.3215 13.0007 33.1894 12.7094C33.0572 12.418 32.9884 12.1054 32.9868 11.7893V6.11136H10.016C8.87355 6.10743 7.77599 6.52331 6.96365 7.26793C6.15131 8.01255 5.69042 9.02521 5.68188 10.0842V46.0269C5.69042 47.0859 6.15131 48.0985 6.96365 48.8431C7.77599 49.5878 8.87355 50.0037 10.016 49.9997H37.6291C38.1965 50.0019 38.7588 49.9004 39.2838 49.701C39.8088 49.5015 40.2863 49.2081 40.6888 48.8374C41.0914 48.4668 41.4111 48.0262 41.6298 47.5409C41.8485 47.0555 41.9618 46.535 41.9632 46.0091C41.5029 46.0143 41.0427 45.9904 40.5859 45.9376C38.113 45.6371 35.8431 44.5113 34.2014 42.7709C32.5596 41.0305 31.6587 38.7951 31.6673 36.4833ZM15.1784 26.5378H25.5032C25.7563 26.5412 25.9978 26.6367 26.1755 26.8037C26.3532 26.9708 26.4528 27.196 26.4528 27.4306C26.4528 27.6652 26.3532 27.8904 26.1755 28.0575C25.9978 28.2245 25.7563 28.3201 25.5032 28.3234H15.1784C14.9253 28.3201 14.6838 28.2245 14.5061 28.0575C14.3284 27.8904 14.2288 27.6652 14.2288 27.4306C14.2288 27.196 14.3284 26.9708 14.5061 26.8037C14.6838 26.6367 14.9253 26.5412 15.1784 26.5378ZM28.4986 44.2235H12.1927C11.9396 44.2202 11.6981 44.1247 11.5204 43.9576C11.3427 43.7906 11.2431 43.5654 11.2431 43.3308C11.2431 43.0962 11.3427 42.871 11.5204 42.7039C11.6981 42.5368 11.9396 42.4413 12.1927 42.438H28.4986C28.7516 42.4413 28.9931 42.5368 29.1708 42.7039C29.3485 42.871 29.4482 43.0962 29.4482 43.3308C29.4482 43.5654 29.3485 43.7906 29.1708 43.9576C28.9931 44.1247 28.7516 44.2202 28.4986 44.2235ZM28.4986 39.0009H12.1927C11.9396 38.9975 11.6981 38.902 11.5204 38.7349C11.3427 38.5679 11.2431 38.3427 11.2431 38.1081C11.2431 37.8735 11.3427 37.6483 11.5204 37.4812C11.6981 37.3142 11.9396 37.2186 12.1927 37.2153H28.4986C28.7516 37.2186 28.9931 37.3142 29.1708 37.4812C29.3485 37.6483 29.4482 37.8735 29.4482 38.1081C29.4482 38.3427 29.3485 38.5679 29.1708 38.7349C28.9931 38.902 28.7516 38.9975 28.4986 39.0009ZM28.4986 33.6621H12.1927C11.9396 33.6588 11.6981 33.5633 11.5204 33.3962C11.3427 33.2291 11.2431 33.004 11.2431 32.7693C11.2431 32.5347 11.3427 32.3095 11.5204 32.1425C11.6981 31.9754 11.9396 31.8799 12.1927 31.8766H28.4986C28.7516 31.8799 28.9931 31.9754 29.1708 32.1425C29.3485 32.3095 29.4482 32.5347 29.4482 32.7693C29.4482 33.004 29.3485 33.2291 29.1708 33.3962C28.9931 33.5633 28.7516 33.6588 28.4986 33.6621ZM22.4501 24.0917C20.3567 24.0917 18.3492 23.3208 16.869 21.9488C15.3887 20.5767 14.5572 18.7158 14.5572 16.7754C14.5572 14.8351 15.3887 12.9742 16.869 11.6021C18.3492 10.23 20.3567 9.45923 22.4501 9.45923C32.9097 9.82526 32.9097 23.7167 22.4501 24.0917Z" fill="#00855F"/>
<path d="M49.9956 30.0468C49.989 29.909 49.9482 29.7745 49.8764 29.6537C49.8045 29.5329 49.7036 29.4292 49.5814 29.3505C49.3142 29.2071 49.0297 29.0932 48.7339 29.0112C46.4424 28.2496 44.299 27.1491 42.3868 25.7526C41.6645 25.2348 41.0096 25.9044 40.4317 26.2793C38.5318 27.5442 36.4377 28.5373 34.2195 29.2255C33.9858 29.3246 33.7955 29.4947 33.6801 29.7076C33.6365 29.8231 33.6074 29.9429 33.5934 30.0647V36.4837C33.5743 37.4932 33.7723 38.4961 34.1759 39.4339C34.5795 40.3717 35.1805 41.2257 35.9439 41.9458C36.7074 42.666 37.6179 43.238 38.6224 43.6285C39.6269 44.019 40.7053 44.2201 41.7945 44.2201C42.8838 44.2201 43.9621 44.019 44.9666 43.6285C45.9711 43.238 46.8817 42.666 47.6451 41.9458C48.4085 41.2257 49.0096 40.3717 49.4131 39.4339C49.8167 38.4961 50.0147 37.4932 49.9956 36.4837C49.9956 36.4658 50.0052 30.0647 49.9956 30.0468ZM46.432 33.4483L41.077 37.6889C40.9083 37.8254 40.6928 37.9021 40.4689 37.9054C40.245 37.9086 40.0271 37.8383 39.8538 37.7067L37.1763 35.7337C36.9758 35.5857 36.8469 35.37 36.818 35.1339C36.7891 34.8978 36.8625 34.6608 37.0222 34.4749C37.1818 34.2891 37.4146 34.1696 37.6693 34.1428C37.924 34.116 38.1797 34.1841 38.3802 34.3321L40.4317 35.8587L45.1799 32.0912C45.3746 31.9415 45.6251 31.8687 45.8772 31.8887C46.1293 31.9087 46.3627 32.0198 46.5272 32.198C46.6916 32.3762 46.7738 32.6073 46.756 32.8412C46.7382 33.0751 46.6218 33.2932 46.432 33.4483Z" fill="#00855F"/>
<path d="M16.4883 16.781C16.4883 18.2478 17.1169 19.6545 18.2359 20.6918C19.3548 21.729 20.8725 22.3117 22.4549 22.3117C24.0374 22.3117 25.555 21.729 26.6739 20.6918C27.7929 19.6545 28.4215 18.2478 28.4215 16.781C28.1422 9.46029 16.7676 9.45136 16.4883 16.781ZM25.3877 17.6737H23.4132V19.5039C23.4132 19.7407 23.3118 19.9678 23.1311 20.1352C22.9505 20.3026 22.7055 20.3967 22.4501 20.3967C22.1947 20.3967 21.9497 20.3026 21.7691 20.1352C21.5884 19.9678 21.487 19.7407 21.487 19.5039V17.6737H19.5125C19.2601 17.6695 19.0195 17.5736 18.8425 17.4067C18.6656 17.2397 18.5665 17.015 18.5665 16.781C18.5665 16.5469 18.6656 16.3222 18.8425 16.1553C19.0195 15.9883 19.2601 15.8924 19.5125 15.8882H21.487V14.0491C21.487 13.8123 21.5884 13.5852 21.7691 13.4178C21.9497 13.2504 22.1947 13.1563 22.4501 13.1563C22.7055 13.1563 22.9505 13.2504 23.1311 13.4178C23.3118 13.5852 23.4132 13.8123 23.4132 14.0491V15.8882H25.3877C25.6431 15.8882 25.8881 15.9823 26.0687 16.1497C26.2493 16.3171 26.3508 16.5442 26.3508 16.781C26.3508 17.0177 26.2493 17.2448 26.0687 17.4122C25.8881 17.5797 25.6431 17.6737 25.3877 17.6737Z" fill="#00855F"/>
<path d="M35.568 12.3965C37.1058 12.3792 41.4335 12.3429 41.4335 12.3429L34.9131 6.61133V11.7894C34.9158 11.9496 34.9857 12.1025 35.1079 12.2158C35.2302 12.3291 35.3952 12.3939 35.568 12.3965Z" fill="#00855F"/>
</svg>
