<svg width="40" height="40" viewBox="0 0 40 40" fill="none" xmlns="http://www.w3.org/2000/svg">
<g clip-path="url(#clip0_440_467)">
<path d="M20 0C16.0444 0 12.1776 1.17298 8.8886 3.37061C5.59962 5.56824 3.03617 8.69181 1.52242 12.3463C0.00866562 16.0009 -0.387401 20.0222 0.384303 23.9018C1.15601 27.7814 3.06082 31.3451 5.85787 34.1421C8.65492 36.9392 12.2186 38.844 16.0982 39.6157C19.9778 40.3874 23.9992 39.9913 27.6537 38.4776C31.3082 36.9638 34.4318 34.4004 36.6294 31.1114C38.827 27.8224 40 23.9556 40 20C40 14.6957 37.8929 9.60859 34.1421 5.85786C30.3914 2.10714 25.3043 0 20 0ZM10.3875 24.9125C9.98751 25.2 5.67501 20.9375 5.32501 20.7375C5.22097 20.6449 5.13771 20.5313 5.08069 20.4041C5.02368 20.277 4.99421 20.1393 4.99421 20C4.99421 19.8607 5.02368 19.723 5.08069 19.5959C5.13771 19.4687 5.22097 19.3551 5.32501 19.2625L9.73751 15.3375C10.675 14.475 12.0125 15.975 10.9875 16.8L8.48751 19.0125H20.625C20.8869 19.0125 21.1381 19.1165 21.3233 19.3017C21.5085 19.4869 21.6125 19.7381 21.6125 20C21.6125 20.2619 21.5085 20.5131 21.3233 20.6983C21.1381 20.8835 20.8869 20.9875 20.625 20.9875H8.56251L11.0625 23.2C11.2086 23.3351 11.3105 23.5112 11.3548 23.7052C11.3991 23.8992 11.3837 24.102 11.3108 24.2871C11.2378 24.4722 11.1106 24.631 10.9459 24.7426C10.7811 24.8542 10.5865 24.9134 10.3875 24.9125ZM31.5125 30.8C31.5125 31.5824 31.2017 32.3327 30.6485 32.886C30.0952 33.4392 29.3449 33.75 28.5625 33.75H15.3C14.5198 33.7467 13.7727 33.4344 13.2221 32.8816C12.6716 32.3287 12.3625 31.5802 12.3625 30.8V23.925C12.3898 23.6838 12.5049 23.4612 12.6859 23.2995C12.8669 23.1378 13.1011 23.0484 13.3438 23.0484C13.5865 23.0484 13.8206 23.1378 14.0016 23.2995C14.1826 23.4612 14.2977 23.6838 14.325 23.925V30.8C14.3234 30.9291 14.3474 31.0572 14.3956 31.177C14.4439 31.2967 14.5154 31.4057 14.6061 31.4975C14.6968 31.5894 14.8049 31.6623 14.924 31.7121C15.0431 31.7619 15.1709 31.7875 15.3 31.7875H28.5625C28.8244 31.7875 29.0756 31.6835 29.2608 31.4983C29.446 31.3131 29.55 31.0619 29.55 30.8V9.2C29.55 8.9381 29.446 8.68692 29.2608 8.50173C29.0756 8.31654 28.8244 8.2125 28.5625 8.2125H15.3C15.1709 8.21249 15.0431 8.23812 14.924 8.2879C14.8049 8.33767 14.6968 8.41061 14.6061 8.50248C14.5154 8.59434 14.4439 8.7033 14.3956 8.82304C14.3474 8.94278 14.3234 9.07091 14.325 9.2V16.075C14.2977 16.3162 14.1826 16.5388 14.0016 16.7005C13.8206 16.8622 13.5865 16.9516 13.3438 16.9516C13.1011 16.9516 12.8669 16.8622 12.6859 16.7005C12.5049 16.5388 12.3898 16.3162 12.3625 16.075V9.2C12.3625 8.41977 12.6716 7.67132 13.2221 7.11844C13.7727 6.56557 14.5198 6.25331 15.3 6.25H28.5625C29.3449 6.25 30.0952 6.5608 30.6485 7.11403C31.2017 7.66727 31.5125 8.41761 31.5125 9.2V30.8Z" fill="#00855F"/>
</g>
<defs>
<clipPath id="clip0_440_467">
<rect width="40" height="40" fill="white"/>
</clipPath>
</defs>
</svg>
