<svg width="40" height="40" viewBox="0 0 40 40" fill="none" xmlns="http://www.w3.org/2000/svg">
<path fill-rule="evenodd" clip-rule="evenodd" d="M22.1322 32.9728H33.6784V31.3154C33.6784 30.4038 32.745 29.658 31.6041 29.658H27.9016V25.7934H36.3176C37.6554 25.7934 38.75 24.6987 38.75 23.3609V6.6268C38.75 5.28898 37.6554 4.1943 36.3176 4.1943H34.727L34.5784 4.52898C34.65 4.68273 34.715 4.83945 34.7731 4.99883L35.911 5.4368V6.22836H36.3786C36.5641 6.22836 36.7159 6.38023 36.7159 6.5657V21.6959H18.6888C18.73 21.9968 18.7517 22.3038 18.7517 22.6159C18.7517 23.727 18.481 24.8142 17.9554 25.7934L17.9571 29.072C19.6364 30.0199 21.0716 31.3588 22.1322 32.9728ZM23.6576 4.1943L23.8062 4.52883C23.7345 4.68266 23.6695 4.83945 23.6112 4.99891L22.4735 5.4368V6.22844H9.48016C9.29461 6.22844 9.14281 6.38023 9.14281 6.56578V16.534C8.37328 16.8993 7.68398 17.4062 7.10875 18.0213V6.6268C7.10875 5.28891 8.20336 4.1943 9.54125 4.1943H23.6576ZM28.1034 2.47266L28.4522 1.56641H29.9324L30.2812 2.47266C30.7641 2.58758 31.2252 2.77898 31.6479 3.03922L32.5359 2.64477L33.5826 3.69148L33.1882 4.57945C33.4484 5.00211 33.6399 5.46336 33.7548 5.94625L34.6609 6.29508V7.77531L33.7548 8.12406C33.6399 8.60703 33.4485 9.06844 33.1882 9.49109L33.5825 10.3789L32.5358 11.4255L31.6477 11.0311C31.2251 11.2913 30.764 11.4828 30.2811 11.5977L29.9323 12.504H28.452L28.1033 11.598C27.6203 11.483 27.159 11.2916 26.7362 11.0313L25.8484 11.4256L24.8018 10.3789L25.1962 9.49086C24.9359 9.0682 24.7445 8.60703 24.6296 8.12422L23.7234 7.77539V6.29508L24.6294 5.94633C24.7443 5.46336 24.9357 5.00203 25.1961 4.5793L24.8018 3.69148L25.8485 2.64484L26.7366 3.0393C27.1593 2.77906 27.6205 2.58758 28.1034 2.47266ZM29.1923 4.22805C30.7427 4.22805 31.9994 5.48469 31.9994 7.03516C31.9994 8.58563 30.7427 9.84227 29.1923 9.84227C27.6418 9.84227 26.3852 8.58563 26.3852 7.03516C26.3852 5.48469 27.6418 4.22805 29.1923 4.22805ZM1.25 38.4344C1.83172 32.9984 6.43281 28.7647 12.0232 28.7647C17.6134 28.7647 22.2146 32.9984 22.7963 38.4344H1.25ZM12.0233 17.1374C8.99758 17.1374 6.54477 19.5902 6.54477 22.6159C6.54477 25.6416 8.99766 28.0945 12.0233 28.0945C15.0489 28.0945 17.5018 25.6416 17.5018 22.6159C17.5018 19.5903 15.049 17.1374 12.0233 17.1374ZM16.6506 8.94648C17.6383 9.51672 18.1846 10.6597 18.0457 11.7578L22.5134 14.3372C23.3948 13.6678 24.6579 13.5695 25.6455 14.1398C26.6332 14.71 27.1148 15.7179 27.0588 16.7502L24.5911 15.3255L23.3112 16.0645V17.5423L25.7788 18.967C24.9129 19.5318 23.7991 19.6186 22.8116 19.0484C21.824 18.4781 21.2776 17.3352 21.4165 16.2371L16.9488 13.6577C16.0673 14.327 14.8042 14.4253 13.8166 13.8551C12.8291 13.2848 12.3473 12.277 12.4034 11.2447L14.8711 12.6694L16.151 11.9304V10.4524L13.6834 9.02773C14.5492 8.46305 15.663 8.37625 16.6506 8.94648Z" fill="#00855f"/>
</svg>
