<svg width="40" height="40" viewBox="0 0 40 40" fill="none" xmlns="http://www.w3.org/2000/svg">
<path d="M21.3399 14.7312C19.9821 14.7312 18.8774 15.8367 18.8774 17.1938V29.3563H5.85786C4.57974 29.3563 3.53442 28.3133 3.53442 27.0352V21.3859C3.53442 17.0008 7.12192 13.4156 11.5071 13.4156H18.3454C19.9579 13.4156 21.461 13.9008 22.7172 14.7312H21.3399ZM14.9266 11.2523C18.025 11.2523 20.554 8.72578 20.554 5.625C20.554 2.52656 18.025 0 14.9266 0C11.8282 0 9.29927 2.52656 9.29927 5.625C9.29927 8.72578 11.8282 11.2523 14.9266 11.2523ZM32.9688 16.6672V19.5172H35.8211L32.9688 16.6672ZM36.4657 20.8086V38.8281C36.4657 39.4727 35.9383 40 35.2938 40H21.3399C20.6954 40 20.168 39.4727 20.168 38.8281V17.1938C20.168 16.5469 20.6954 16.0219 21.3399 16.0219H31.6797V20.1609C31.6797 20.5172 31.968 20.8078 32.3243 20.8078H36.4657V20.8086ZM23.661 20.7156C23.661 21.0719 23.9508 21.3602 24.3055 21.3602H25.6008V22.6555C25.6008 23.0117 25.8907 23.3 26.2454 23.3C26.6016 23.3 26.8922 23.0117 26.8922 22.6555V21.3594H28.1875C28.5422 21.3594 28.8321 21.0711 28.8321 20.7148C28.8321 20.3586 28.5422 20.0703 28.1875 20.0703H26.8922V18.775C26.8922 18.4188 26.6024 18.1305 26.2454 18.1305C25.8907 18.1305 25.6008 18.4188 25.6008 18.775V20.0703H24.3055C23.9508 20.0711 23.661 20.3586 23.661 20.7156ZM33.8125 36.4563C33.8125 36.1 33.5243 35.8094 33.168 35.8094H23.4657C23.1094 35.8094 22.8211 36.0992 22.8211 36.4563C22.8211 36.8125 23.1094 37.1008 23.4657 37.1008H33.168C33.5243 37.1008 33.8125 36.8133 33.8125 36.4563ZM33.8125 33.0352C33.8125 32.6789 33.5243 32.3883 33.168 32.3883H23.4657C23.1094 32.3883 22.8211 32.6781 22.8211 33.0352C22.8211 33.3922 23.1094 33.6797 23.4657 33.6797H33.168C33.5243 33.6797 33.8125 33.3914 33.8125 33.0352ZM33.8125 29.6133C33.8125 29.257 33.5243 28.9664 33.168 28.9664H23.4657C23.1094 28.9664 22.8211 29.2562 22.8211 29.6133C22.8211 29.9695 23.1094 30.2578 23.4657 30.2578H33.168C33.5243 30.2578 33.8125 29.9703 33.8125 29.6133ZM33.8125 26.1922C33.8125 25.8359 33.5243 25.5477 33.168 25.5477H23.4657C23.1094 25.5477 22.8211 25.8359 22.8211 26.1922C22.8211 26.5484 23.1094 26.8367 23.4657 26.8367H33.168C33.5243 26.8367 33.8125 26.5484 33.8125 26.1922Z" fill="#00855f"/>
</svg>
